<?xml version="1.0" encoding="UTF-8"?><svg id="a" xmlns="http://www.w3.org/2000/svg" viewBox="0 0 635.54 635.54"><defs><style>.b{fill:none;}.b,.c{stroke-width:0px;}.c{fill:#2273f3;}</style></defs><path class="b" d="m316.15,33.16c14.59,28.42,53.17,33.33,74.4,9.46l18.63-20.93c2.11-2.37,4.35-4.44,6.68-6.24-.88-.28-1.75-.58-2.62-.85l-12.41,13.38c-23,24.81-63.75,18.77-78.58-11.64L314.3.04c-5.3.06-10.56.24-15.79.55,1.78,2.3,3.42,4.84,4.85,7.63l12.79,24.93Z"/><path class="b" d="m149.18,88.46c28.5,14.42,62.6-4.29,65.75-36.08l2.76-27.88c.31-3.16.91-6.14,1.74-8.96-.88.28-1.76.56-2.63.85l-2.17,18.11c-4.02,33.6-40.54,52.67-70.41,36.78l-16.05-8.54c-4.22,3.15-8.37,6.39-12.43,9.74,2.81.81,5.62,1.91,8.44,3.33l25,12.65Z"/><path class="b" d="m411.36,14.02C385.29,5.99,357.79,1.25,329.33.23c15.17,31.76,57.31,38.86,82.03,13.79Z"/><path class="b" d="m488.06,58.88l-4.3,27.69c-4.9,31.56,23.42,58.21,54.63,51.38l27.37-5.99c3.07-.67,6.07-1.03,8.99-1.12-.54-.74-1.07-1.48-1.61-2.21l-17.82,3.52c-33.2,6.55-62.62-22.28-56.74-55.6l3.16-17.92c-4.29-3.05-8.67-6-13.11-8.84.09,2.93-.08,5.96-.56,9.08Z"/><path class="b" d="m.06,322.69c.43,28.5,4.6,56.1,12.06,82.31,25.59-24.19,19.38-66.48-12.06-82.31Z"/><path class="b" d="m57.84,134.96c-15.91,22.59-28.97,47.33-38.61,73.72,34.96-4.53,54.79-42.43,38.61-73.72Z"/><path class="b" d="m47.58,407.25c22.53-22.65,15.27-60.86-13.99-73.68l-25.66-11.25c-2.88-1.26-5.52-2.74-7.93-4.38,0,.93.03,1.85.04,2.78l16.45,7.62c30.71,14.21,37.56,54.83,13.22,78.33l-13.13,12.67c1.69,5.01,3.49,9.96,5.42,14.85,1.65-2.44,3.58-4.81,5.83-7.07l19.75-19.87Z"/><path class="b" d="m46.59,231.35c31.54-5.1,48.13-40.27,31.99-67.84l-14.15-24.18c-1.59-2.72-2.85-5.46-3.84-8.21-.54.74-1.09,1.48-1.62,2.22l8.86,15.88c16.49,29.55-1.84,66.44-35.35,71.14l-18.08,2.54c-1.57,5.01-3.01,10.07-4.33,15.19,2.77-1,5.72-1.78,8.86-2.29l27.66-4.46Z"/><path class="b" d="m635.48,312.85c-.43-28.5-4.59-56.09-12.06-82.3-25.58,24.19-19.37,66.47,12.06,82.3Z"/><path class="b" d="m571.95,127.04c-16.72-22.25-36.29-42.23-58.18-59.41-6.42,34.59,23.45,65.11,58.18,59.41Z"/><path class="b" d="m486.36,547.07c-28.5-14.42-62.6,4.29-65.75,36.08l-2.76,27.88c-.31,3.16-.91,6.15-1.74,8.98.88-.29,1.77-.56,2.64-.86l2.17-18.1c4.02-33.6,40.54-52.67,70.41-36.78l16.03,8.53c4.23-3.15,8.38-6.4,12.44-9.75-2.81-.82-5.63-1.91-8.44-3.33l-25-12.65Z"/><path class="b" d="m420.61,618.52c26.6-9.09,51.61-21.61,74.5-37.03-30.94-16.82-69.23,2.2-74.5,37.03Z"/><path class="b" d="m224.19,621.53c26.07,8.02,53.57,12.76,82.02,13.78-15.17-31.75-57.3-38.84-82.02-13.78Z"/><path class="b" d="m319.39,602.37c-14.59-28.42-53.17-33.33-74.4-9.46l-18.63,20.93c-2.11,2.38-4.36,4.44-6.69,6.24.88.29,1.76.58,2.65.86l12.4-13.37c23-24.81,63.75-18.77,78.58,11.64l7.94,16.29c5.3-.06,10.56-.24,15.79-.55-1.79-2.3-3.42-4.84-4.86-7.64l-12.79-24.93Z"/><path class="b" d="m284.91,328.76l3.12.33c3.55.38,5.62,4.2,3.99,7.38l-1.43,2.79c-2.32,4.51,2.67,9.26,7.06,6.73l2.71-1.57c3.09-1.79,7.01.09,7.56,3.62l.48,3.1c.78,5.01,7.61,5.92,9.67,1.29l1.28-2.86c1.45-3.26,5.73-4.04,8.25-1.51l2.21,2.22c3.57,3.6,9.63.32,8.58-4.64l-.65-3.07c-.75-3.49,2.25-6.64,5.78-6.07l3.09.5c5,.8,7.98-5.41,4.21-8.8l-2.33-2.1c-2.65-2.39-2.08-6.7,1.11-8.31l2.8-1.41c4.53-2.28,3.28-9.06-1.76-9.59l-3.12-.33c-3.55-.38-5.62-4.2-3.99-7.38l1.43-2.79c2.32-4.51-2.67-9.26-7.06-6.73l-2.71,1.57c-3.09,1.79-7.01-.09-7.56-3.62l-.48-3.1c-.78-5.01-7.61-5.92-9.67-1.29l-1.28,2.86c-1.45,3.26-5.73,4.04-8.25,1.51l-2.21-2.22c-3.57-3.6-9.63-.32-8.58,4.64l.65,3.07c.75,3.49-2.25,6.64-5.78,6.07l-3.09-.5c-5-.81-7.98,5.41-4.21,8.8l2.33,2.1c2.65,2.39,2.08,6.7-1.11,8.31l-2.8,1.41c-4.53,2.28-3.28,9.06,1.76,9.59Z"/><path class="b" d="m587.96,228.28c-22.53,22.65-15.27,60.86,13.99,73.68l25.66,11.25h0c2.88,1.26,5.52,2.74,7.93,4.38,0-.93-.03-1.84-.04-2.77l-16.44-7.61c-30.71-14.21-37.56-54.83-13.22-78.33l13.12-12.67c-1.69-5.01-3.5-9.97-5.43-14.87-1.65,2.44-3.58,4.81-5.82,7.06l-19.75,19.87Z"/><path class="b" d="m588.95,404.18c-31.54,5.1-48.13,40.27-31.99,67.84l14.15,24.18c1.59,2.72,2.86,5.46,3.84,8.21.54-.74,1.09-1.48,1.62-2.22l-8.85-15.87c-16.49-29.55,1.84-66.44,35.35-71.14l18.06-2.54c1.57-5.02,3.02-10.09,4.34-15.21-2.77,1-5.72,1.78-8.86,2.29l-27.66,4.46Z"/><path class="b" d="m577.71,500.58c15.91-22.58,28.96-47.32,38.61-73.71-34.94,4.53-54.77,42.42-38.61,73.71Z"/><path class="b" d="m214.94,17.02c-26.61,9.09-51.62,21.61-74.52,37.04,30.94,16.83,69.25-2.2,74.52-37.04Z"/><path class="b" d="m219.86,424.35l12.05-5.1c13.74-5.82,29.03,3.99,29.49,18.9l.4,13.08c.65,21.17,28.48,28.44,39.41,10.31l6.76-11.21c7.7-12.78,25.83-13.84,34.97-2.04l8.01,10.35c12.96,16.74,39.76,6.27,37.94-14.82l-1.12-13.04c-1.28-14.87,12.76-26.38,27.09-22.21l12.57,3.66c20.33,5.93,35.85-18.29,21.98-34.29l-8.57-9.89c-9.78-11.27-5.18-28.85,8.86-33.89l12.32-4.42h0c19.93-7.15,18.25-35.87-2.37-40.66l-12.75-2.96c-14.54-3.38-21.15-20.3-12.75-32.63l7.36-10.82c11.92-17.5-6.32-39.75-25.82-31.5l-12.05,5.1c-13.74,5.82-29.03-3.99-29.49-18.9l-.4-13.08c-.65-21.17-28.48-28.44-39.41-10.31l-6.76,11.21c-7.7,12.78-25.83,13.84-34.97,2.04l-8.01-10.35c-12.96-16.74-39.76-6.27-37.94,14.82l1.12,13.04c1.28,14.87-12.76,26.38-27.09,22.21l-12.57-3.66c-20.33-5.93-35.85,18.29-21.98,34.29l8.57,9.89c9.78,11.27,5.18,28.85-8.86,33.89l-12.32,4.42c-19.93,7.15-18.25,35.87,2.37,40.66l12.75,2.96c14.54,3.38,21.15,20.3,12.75,32.63l-7.36,10.82c-11.92,17.5,6.32,39.75,25.82,31.5Zm-14.26-76.63l-11.18-2.36c-18.09-3.81-20.07-28.85-2.8-35.46l10.67-4.08c12.17-4.66,15.87-20.08,7.13-29.75l-7.66-8.48c-12.39-13.72.73-35.15,18.58-30.34l11.04,2.97c12.59,3.38,24.65-6.92,23.26-19.88l-1.22-11.36c-1.96-18.38,21.24-28,32.86-13.62l7.18,8.89c8.19,10.14,24.01,8.89,30.5-2.41l5.7-9.91c9.21-16.03,33.64-10.17,34.59,8.29l.58,11.41c.67,13.02,14.2,21.3,26.09,15.98l10.43-4.67c16.88-7.55,33.2,11.55,23.11,27.04l-6.24,9.58c-7.11,10.92-1.03,25.57,11.72,28.26l11.18,2.36h0c18.09,3.81,20.07,28.85,2.8,35.46l-10.67,4.08c-12.17,4.66-15.87,20.08-7.13,29.75l7.66,8.48c12.39,13.72-.73,35.15-18.58,30.34l-11.04-2.97c-12.59-3.38-24.65,6.92-23.26,19.88l1.22,11.36c1.96,18.38-21.24,28-32.86,13.62l-7.18-8.89c-8.19-10.14-24.01-8.89-30.5,2.41l-5.7,9.91c-9.21,16.03-33.64,10.17-34.59-8.29l-.58-11.41c-.67-13.02-14.2-21.3-26.09-15.98l-10.43,4.67c-16.88,7.55-33.2-11.55-23.11-27.04l6.24-9.58c7.11-10.92,1.03-25.57-11.72-28.26Z"/><path class="b" d="m88.1,497.31l25.63-6.16c29.22-7.02,56.38,17.49,52.38,47.28l-3.51,26.13c-2.17,16.15,4.22,29.57,14.48,38.19,7.26,3.59,14.67,6.92,22.24,9.96,13.29,1.92,27.59-2.27,38.19-14.69l17.11-20.05c19.51-22.86,55.89-18.99,70.16,7.46l12.52,23.2c7.72,14.32,20.75,21.42,34.1,22.38,8.09-1.38,16.08-3.05,23.95-5.03,11.87-6.26,20.96-18.05,22.23-34.32l2.06-26.28c2.35-29.96,34.06-48.21,61.15-35.2l23.76,11.41c14.58,7,29.21,5.16,40.54-1.81,5.82-5.96,11.41-12.13,16.74-18.53,5.79-11.99,6.15-26.76-2.32-40.56l-13.78-22.47c-15.71-25.62-.78-59.02,28.78-64.42l25.93-4.73h0c15.97-2.92,26.74-13.07,31.79-25.43,1.18-8.15,2.04-16.39,2.59-24.72-2.37-13.1-10.76-25.23-25.71-31.42l-24.36-10.08c-27.77-11.49-35.34-47.29-14.59-69.03l18.2-19.07c11.24-11.78,13.97-26.39,10.74-39.39-3.83-7.27-7.92-14.37-12.28-21.29-9.62-9.28-23.59-14.23-39.39-10.43l-25.63,6.16c-29.22,7.02-56.38-17.49-52.38-47.28l3.51-26.13c2.17-16.14-4.21-29.56-14.47-38.18-7.27-3.6-14.7-6.93-22.27-9.97-13.28-1.91-27.57,2.28-38.17,14.69l-17.11,20.05c-19.51,22.86-55.89,18.99-70.16-7.46l-12.52-23.2c-7.71-14.3-20.72-21.4-34.05-22.38-8.12,1.38-16.14,3.06-24.04,5.05-11.85,6.27-20.91,18.05-22.19,34.29l-2.06,26.28c-2.35,29.96-34.06,48.21-61.15,35.2l-23.76-11.41c-14.56-6.99-29.16-5.16-40.49,1.78-5.85,5.98-11.46,12.19-16.82,18.61-5.77,11.98-6.11,26.72,2.34,40.51l13.78,22.47c15.71,25.62.78,59.02-28.78,64.42l-25.93,4.73c-15.95,2.91-26.72,13.05-31.77,25.39-1.18,8.17-2.05,16.45-2.6,24.81,2.38,13.08,10.77,25.2,25.7,31.38l24.36,10.08c27.77,11.49,35.34,47.29,14.59,69.03l-18.2,19.07c-11.24,11.78-13.97,26.37-10.75,39.37,3.83,7.27,7.93,14.38,12.29,21.31,9.62,9.27,23.59,14.22,39.38,10.42Zm-21.77-72.72l16.68-18.22c19.02-20.77,11.25-54.16-14.99-64.39l-23.01-8.98c-37.23-14.52-32.59-68.62,6.56-76.6l24.2-4.93c27.59-5.63,40.93-37.21,25.72-60.91l-13.34-20.79c-21.58-33.62,13.96-74.67,50.33-58.11l22.48,10.24c25.63,11.67,54.99-6.05,56.61-34.16l1.43-24.66c2.31-39.89,55.19-52.2,74.88-17.43l12.17,21.49c13.88,24.51,48.04,27.43,65.88,5.64l15.65-19.11c25.31-30.92,75.33-9.79,70.82,29.91l-2.79,24.54c-3.18,27.98,22.74,50.42,49.98,43.28l23.89-6.27c38.66-10.14,66.71,36.35,39.72,65.82l-16.68,18.22c-19.02,20.77-11.25,54.16,14.99,64.39l23.01,8.98h0c37.23,14.51,32.59,68.61-6.56,76.59l-24.2,4.93c-27.59,5.63-40.93,37.21-25.72,60.91l13.34,20.79c21.58,33.63-13.96,74.68-50.33,58.12l-22.48-10.24c-25.63-11.67-54.99,6.05-56.61,34.16l-1.43,24.66c-2.31,39.89-55.19,52.2-74.88,17.43l-12.17-21.49c-13.88-24.51-48.04-27.43-65.88-5.64l-15.65,19.11c-25.31,30.92-75.33,9.79-70.82-29.91l2.79-24.54c3.18-27.98-22.74-50.42-49.98-43.28l-23.89,6.27c-38.66,10.14-66.71-36.35-39.72-65.82Z"/><path class="b" d="m136.98,559l-3.16,17.91c4.29,3.05,8.66,5.99,13.1,8.83-.1-2.93.08-5.97.56-9.09l4.3-27.69c4.9-31.56-23.42-58.21-54.63-51.38l-27.37,5.99c-3.07.67-6.07,1.03-8.99,1.12.54.74,1.08,1.49,1.63,2.23l17.82-3.52c33.2-6.55,62.62,22.28,56.74,55.6Z"/><path class="b" d="m123.62,482.84l22.16-6.3c25.27-7.18,49.87,13.25,47.44,39.41l-2.13,22.94c-3.44,37.12,43.61,55.86,66.63,26.54l14.23-18.13c16.22-20.66,48.14-18.59,61.55,4l11.76,19.81c19.03,32.06,68.11,19.56,69.5-17.69l.86-23.03c.97-26.25,28.01-43.33,52.14-32.94l21.16,9.12c34.24,14.75,66.6-24.21,45.83-55.16l-12.84-19.13c-14.64-21.81-2.81-51.53,22.82-57.3l22.48-5.07h0c36.37-8.19,39.65-58.73,4.65-71.56l-21.64-7.93c-24.67-9.04-32.56-40.03-15.22-59.77l15.21-17.31c24.61-28-2.44-70.82-38.3-60.63l-22.16,6.3c-25.27,7.18-49.87-13.25-47.44-39.41l2.13-22.94c3.44-37.12-43.61-55.86-66.63-26.54l-14.23,18.13c-16.22,20.66-48.14,18.59-61.55-4l-11.76-19.81c-19.03-32.06-68.11-19.56-69.5,17.69l-.86,23.03c-.97,26.25-28.01,43.33-52.14,32.94l-21.16-9.12c-34.24-14.75-66.6,24.21-45.83,55.16l12.84,19.13c14.64,21.81,2.81,51.53-22.82,57.3l-22.48,5.07c-36.37,8.19-39.65,58.73-4.65,71.56l21.64,7.93c24.67,9.04,32.56,40.03,15.22,59.77l-15.21,17.31c-24.61,28,2.44,70.82,38.3,60.63Zm-19.52-63.73l13.78-16.35c15.71-18.64,7.8-47.24-15.26-55.16l-20.22-6.95c-32.72-11.24-30.63-58.19,2.95-66.49l20.76-5.13c23.67-5.85,34.08-33.64,20.08-53.6l-12.28-17.51c-19.86-28.32,9.43-65.08,41.47-52.05l19.81,8.05c22.58,9.18,47.34-7.18,47.75-31.56l.36-21.38c.57-34.59,45.87-47.12,64.14-17.74l11.29,18.16c12.87,20.71,42.52,22.02,57.18,2.54l12.86-17.09c20.8-27.64,64.81-11.15,62.32,23.35l-1.54,21.33c-1.75,24.31,21.46,42.81,44.77,35.66l20.44-6.27c33.07-10.14,58.98,29.07,36.69,55.52l-13.78,16.35c-15.71,18.64-7.8,47.24,15.26,55.16l20.22,6.95h0c32.72,11.24,30.63,58.19-2.95,66.49l-20.76,5.13c-23.67,5.85-34.08,33.64-20.08,53.6l12.28,17.51c19.86,28.32-9.43,65.08-41.47,52.05l-19.81-8.05c-22.58-9.18-47.34,7.18-47.75,31.56l-.36,21.38c-.57,34.59-45.87,47.12-64.14,17.74l-11.29-18.16c-12.87-20.71-42.52-22.02-57.18-2.54l-12.86,17.09c-20.8,27.64-64.81,11.15-62.32-23.35l1.54-21.33c1.75-24.31-21.46-42.81-44.77-35.66l-20.44,6.27c-33.07,10.14-58.98-29.07-36.69-55.52Z"/><path class="b" d="m157.53,465.77l18.74-6.17c21.36-7.03,43.12,9.58,41.96,32.04l-1.01,19.7c-1.64,31.86,39.26,46.24,57.92,20.35l11.53-16c13.15-18.24,40.52-17.59,52.78,1.26l10.76,16.53c17.4,26.74,58.94,14.33,58.82-17.58l-.08-19.72c-.09-22.49,22.44-38.05,43.44-30.01l18.42,7.05c29.79,11.41,56.1-23.05,37.25-48.79l-11.66-15.91c-13.29-18.14-4.22-43.97,17.5-49.81l19.05-5.12h0c30.81-8.29,31.84-51.63,1.46-61.37l-18.78-6.02c-21.42-6.87-29.26-33.1-15.12-50.59l12.4-15.34c20.06-24.82-4.58-60.49-34.89-50.51l-18.74,6.17c-21.36,7.03-43.12-9.58-41.96-32.04l1.01-19.7c1.64-31.86-39.26-46.24-57.92-20.35l-11.53,16c-13.15,18.24-40.52,17.59-52.78-1.26l-10.76-16.53c-17.4-26.74-58.94-14.33-58.82,17.58l.08,19.72c.09,22.49-22.44,38.05-43.44,30.01l-18.42-7.05c-29.79-11.41-56.1,23.05-37.25,48.79l11.66,15.91c13.29,18.14,4.22,43.97-17.5,49.81l-19.05,5.12c-30.81,8.29-31.84,51.63-1.46,61.37l18.78,6.02c21.42,6.87,29.26,33.1,15.12,50.59l-12.4,15.34c-20.06,24.82,4.58,60.49,34.89,50.51Zm-16.62-55.07l11.07-14.28c12.62-16.28,4.95-40.16-14.79-46.04l-17.31-5.16c-28.01-8.35-27.88-48.05.18-56.22l17.35-5.05c19.77-5.76,27.6-29.58,15.09-45.94l-10.97-14.35c-17.75-23.22,5.7-55.27,33.2-45.38l17,6.11c19.38,6.97,39.71-7.7,39.21-28.29l-.44-18.06c-.71-29.22,37.09-41.36,53.53-17.2l10.16,14.94c11.58,17.03,36.65,17.11,48.35.16l10.26-14.87c16.6-24.05,54.32-11.66,53.42,17.55l-.56,18.06c-.63,20.59,19.6,35.39,39.03,28.55l17.04-6c27.57-9.71,50.8,22.49,32.9,45.59l-11.07,14.28c-12.62,16.28-4.95,40.16,14.79,46.04l17.31,5.16h0c28.01,8.35,27.88,48.05-.18,56.22l-17.35,5.05c-19.77,5.76-27.6,29.58-15.09,45.94l10.97,14.35c17.75,23.22-5.7,55.27-33.2,45.38l-17-6.11c-19.38-6.97-39.71,7.7-39.21,28.29l.44,18.06c.71,29.22-37.09,41.36-53.53,17.2l-10.16-14.94c-11.58-17.03-36.65-17.11-48.35-.16l-10.26,14.87c-16.6,24.05-54.32,11.66-53.42-17.55l.56-18.06c.63-20.59-19.6-35.39-39.03-28.55l-17.04,6c-27.57,9.71-50.8-22.49-32.9-45.59Z"/><path class="b" d="m189.63,446.24l15.36-5.77c17.51-6.58,36.16,6.49,35.97,25.19l-.17,16.41c-.27,26.54,34.21,37.09,48.83,14.94l9.04-13.69c10.31-15.61,33.07-16.01,43.91-.76l9.5,13.37c15.37,21.64,49.47,9.9,48.28-16.61l-.74-16.39c-.84-18.68,17.35-32.38,35.08-26.42l15.55,5.23c25.16,8.46,45.85-21.07,29.3-41.82l-10.23-12.83c-11.66-14.62-5-36.4,12.85-41.99l15.66-4.91h0c25.33-7.94,24.7-43.99-.88-51.05l-15.82-4.36c-18.03-4.97-25.44-26.5-14.29-41.52l9.78-13.17c15.82-21.3-5.87-50.11-30.72-40.78l-15.36,5.77c-17.51,6.58-36.16-6.49-35.97-25.19l.17-16.41c.27-26.54-34.21-37.09-48.83-14.94l-9.04,13.69c-10.31,15.61-33.07,16.01-43.91.76l-9.5-13.37c-15.37-21.64-49.47-9.9-48.28,16.61l.74,16.39c.84,18.68-17.35,32.38-35.08,26.42l-15.55-5.23c-25.16-8.46-45.85,21.07-29.3,41.82l10.23,12.83c11.66,14.62,5,36.4-12.85,41.99l-15.66,4.91c-25.33,7.94-24.7,43.99.88,51.05l15.82,4.36c18.03,4.97,25.44,26.5,14.29,41.52l-9.78,13.17c-15.82,21.3,5.87,50.11,30.72,40.78Zm-13-46.75l8.55-12.02c9.74-13.7,2.69-32.91-13.61-37.05l-14.29-3.63c-23.12-5.87-24.34-38.26-1.73-45.86l13.98-4.7c15.94-5.36,21.52-25.05,10.77-37.98l-9.43-11.34c-15.25-18.34,2.8-45.26,25.56-38.12l14.07,4.41c16.04,5.03,32.13-7.61,31.03-24.39l-.96-14.72c-1.56-23.8,28.86-34.98,43.08-15.82l8.79,11.84c10.02,13.5,30.47,12.73,39.44-1.49l7.87-12.47c12.73-20.18,43.92-11.34,44.16,12.52l.15,14.75c.17,16.81,17.17,28.21,32.79,21.98l13.7-5.46c22.16-8.84,42.19,16.65,28.36,36.09l-8.55,12.02c-9.74,13.7-2.69,32.91,13.61,37.05l14.29,3.63h0c23.12,5.87,24.34,38.26,1.73,45.86l-13.98,4.7c-15.94,5.36-21.52,25.05-10.77,37.98l9.43,11.34c15.25,18.34-2.8,45.26-25.56,38.12l-14.07-4.41c-16.04-5.03-32.13,7.61-31.03,24.39l.96,14.72c1.56,23.8-28.86,34.98-43.08,15.82l-8.79-11.84c-10.02-13.5-30.47-12.73-39.44,1.49l-7.87,12.47c-12.73,20.18-43.92,11.34-44.16-12.52l-.15-14.75c-.17-16.81-17.17-28.21-32.79-21.98l-13.7,5.46c-22.16,8.84-42.19-16.65-28.36-36.09Z"/><path class="b" d="m232.97,369.27l-5.16,8.3c-8.35,13.41,5.94,29.45,20.23,22.7l8.83-4.17c10.07-4.75,21.78,2.09,22.58,13.2l.7,9.74c1.13,15.76,22.12,20.34,29.71,6.48l4.69-8.57c5.35-9.77,18.84-11.12,26.02-2.6l6.29,7.47c10.18,12.09,29.84,3.46,27.84-12.22l-1.24-9.69c-1.41-11.04,8.72-20.06,19.53-17.39l9.48,2.35c15.34,3.8,26.18-14.74,15.34-26.25l-6.7-7.11c-7.64-8.11-4.75-21.36,5.57-25.55l9.05-3.68c14.64-5.95,12.51-27.32-3.02-30.26l-9.6-1.82c-10.94-2.08-16.39-14.49-10.51-23.95l5.16-8.3c8.35-13.41-5.94-29.45-20.23-22.7l-8.83,4.17c-10.07,4.75-21.78-2.09-22.58-13.2l-.7-9.74c-1.13-15.76-22.12-20.34-29.71-6.48l-4.69,8.57c-5.35,9.77-18.84,11.12-26.02,2.6l-6.29-7.47c-10.18-12.09-29.84-3.46-27.84,12.22l1.24,9.69c1.41,11.04-8.72,20.06-19.53,17.39l-9.48-2.35c-15.34-3.8-26.18,14.74-15.34,26.25l6.7,7.11c7.64,8.11,4.75,21.36-5.57,25.55l-9.05,3.68c-14.64,5.95-12.51,27.32,3.02,30.26l9.6,1.82c10.94,2.08,16.39,14.49,10.51,23.95Zm-4.87-53.41l7.45-3.21c8.49-3.65,10.67-14.7,4.19-21.3l-5.68-5.79c-9.19-9.36-.51-24.94,12.29-22.05l7.91,1.79c9.02,2.04,17.27-5.62,15.91-14.77l-1.19-8.02c-1.93-12.98,14.24-20.48,22.9-10.62l5.35,6.09c6.1,6.95,17.27,5.6,21.55-2.6l3.75-7.19c6.07-11.64,23.56-8.2,24.77,4.87l.75,8.08c.85,9.21,10.68,14.69,18.96,10.57l7.26-3.61c11.74-5.85,23.87,7.22,17.17,18.5l-4.14,6.97c-4.72,7.95.01,18.17,9.13,19.7l8,1.34h0c12.94,2.17,15.07,19.87,3.02,25.06l-7.45,3.21c-8.49,3.65-10.67,14.7-4.19,21.3l5.68,5.79c9.19,9.36.51,24.94-12.29,22.05l-7.91-1.79c-9.02-2.04-17.27,5.62-15.91,14.77l1.19,8.02c1.93,12.98-14.24,20.48-22.9,10.62l-5.35-6.09c-6.1-6.95-17.27-5.6-21.55,2.6l-3.75,7.19c-6.07,11.64-23.56,8.2-24.77-4.87l-.75-8.08c-.85-9.21-10.68-14.69-18.96-10.57l-7.26,3.61c-11.74,5.85-23.87-7.22-17.17-18.5l4.14-6.97c4.72-7.95-.01-18.17-9.13-19.7l-8-1.34c-12.94-2.17-15.07-19.87-3.02-25.06Z"/><path class="b" d="m249.23,337.61l6.38.94c7.27,1.08,11.21,9.12,7.58,15.52l-3.18,5.61c-5.15,9.08,4.71,19.27,13.96,14.43l5.72-2.99c6.51-3.42,14.42.78,15.25,8.09l.73,6.41c1.18,10.37,15.14,12.82,19.78,3.47l2.87-5.78c3.27-6.59,12.13-7.85,17.1-2.42l4.36,4.76c7.05,7.7,19.79,1.47,18.04-8.82l-1.08-6.36c-1.23-7.26,5.2-13.48,12.41-12.01l6.32,1.29c10.22,2.09,16.87-10.44,9.41-17.74l-4.61-4.51c-5.26-5.14-3.72-13.96,2.98-17.01l5.87-2.67h0c9.5-4.32,7.52-18.36-2.81-19.88l-6.38-.94c-7.27-1.08-11.21-9.12-7.58-15.52l3.18-5.61c5.15-9.08-4.71-19.27-13.96-14.43l-5.72,2.99c-6.51,3.42-14.42-.78-15.25-8.09l-.73-6.41c-1.18-10.37-15.14-12.82-19.78-3.47l-2.87,5.78c-3.27,6.59-12.13,7.85-17.1,2.42l-4.36-4.76c-7.05-7.7-19.79-1.47-18.04,8.82l1.08,6.36c1.23,7.26-5.2,13.48-12.41,12.01l-6.32-1.29c-10.22-2.09-16.87,10.44-9.41,17.74l4.61,4.51c5.26,5.14,3.72,13.96-2.98,17.01l-5.87,2.67c-9.5,4.32-7.52,18.36,2.81,19.88Zm15.54-18.79l4.32-2.07c4.93-2.37,5.94-8.94,1.96-12.68l-3.49-3.28c-5.65-5.31-.91-14.71,6.72-13.32l4.71.86c5.38.98,10.06-3.74,9.04-9.11l-.9-4.71c-1.46-7.61,7.91-12.43,13.26-6.82l3.31,3.47c3.77,3.95,10.33,2.88,12.66-2.06l2.04-4.34c3.3-7.01,13.71-5.4,14.74,2.28l.64,4.75c.72,5.42,6.66,8.41,11.45,5.78l4.2-2.31c6.79-3.73,14.27,3.69,10.59,10.51l-2.28,4.22c-2.59,4.81.45,10.73,5.87,11.41l4.76.6c7.69.97,9.38,11.37,2.39,14.72l-4.32,2.07c-4.93,2.37-5.94,8.94-1.96,12.68l3.49,3.28c5.65,5.31.91,14.71-6.72,13.32l-4.71-.86c-5.38-.98-10.06,3.74-9.04,9.11l.9,4.71c1.46,7.61-7.91,12.43-13.26,6.82l-3.31-3.47c-3.77-3.95-10.33-2.88-12.66,2.06l-2.04,4.34c-3.3,7.01-13.71,5.4-14.74-2.28l-.64-4.75c-.72-5.42-6.66-8.41-11.45-5.78l-4.2,2.31c-6.79,3.73-14.27-3.69-10.59-10.51l2.28-4.22c2.59-4.81-.45-10.73-5.87-11.41l-4.76-.6c-7.69-.97-9.38-11.37-2.39-14.72Z"/><path class="b" d="m63.6,508.51c16.72,22.25,36.29,42.23,58.18,59.4,6.42-34.59-23.46-65.1-58.18-59.4Z"/><path class="c" d="m567.72,486.32l8.85,15.87c.38-.53.76-1.08,1.13-1.61-16.17-31.29,3.66-69.17,38.61-73.71,1.71-4.69,3.32-9.44,4.82-14.23l-18.06,2.54c-33.51,4.7-51.84,41.59-35.35,71.14Z"/><path class="c" d="m420.92,601.05l-2.17,18.1c.62-.21,1.24-.42,1.86-.63,5.27-34.83,43.56-53.85,74.5-37.03,4.15-2.8,8.24-5.7,12.25-8.68l-16.03-8.53c-29.87-15.89-66.39,3.18-70.41,36.78Z"/><path class="c" d="m121.78,567.92c3.94,3.09,7.95,6.09,12.04,9l3.16-17.91c5.88-33.32-23.54-62.15-56.74-55.6l-17.82,3.52c.39.53.79,1.06,1.18,1.59,34.72-5.7,64.6,24.81,58.18,59.4Z"/><path class="c" d="m619.06,307.21l16.44,7.61c0-.66-.01-1.31-.02-1.97-31.43-15.83-37.64-58.1-12.06-82.3-1.38-4.83-2.86-9.61-4.46-14.34l-13.12,12.67c-24.34,23.5-17.49,64.12,13.22,78.33Z"/><path class="c" d="m234.72,607.57l-12.4,13.37c.62.2,1.25.39,1.88.58,24.72-25.06,66.85-17.97,82.02,13.78,3.84.14,7.69.23,11.56.23,1.16,0,2.31-.03,3.47-.04l-7.94-16.29c-14.83-30.41-55.58-36.45-78.58-11.64Z"/><path class="c" d="m555.31,132.15l17.82-3.52c-.39-.53-.79-1.06-1.18-1.59-34.72,5.7-64.6-24.81-58.18-59.41-3.94-3.09-7.95-6.09-12.04-9l-3.16,17.92c-5.88,33.32,23.54,62.15,56.74,55.6Z"/><path class="c" d="m214.63,34.5l2.17-18.11c-.62.21-1.24.42-1.86.63-5.27,34.85-43.57,53.88-74.52,37.04-4.15,2.8-8.24,5.7-12.25,8.68l16.05,8.54c29.87,15.89,66.39-3.18,70.41-36.78Z"/><path class="c" d="m16.49,328.34L.04,320.72c0,.66.01,1.31.02,1.97,31.44,15.82,37.65,58.11,12.06,82.31,1.38,4.83,2.86,9.61,4.46,14.34l13.13-12.67c24.34-23.5,17.49-64.12-13.22-78.33Z"/><path class="c" d="m67.83,149.23l-8.86-15.88c-.38.53-.76,1.07-1.13,1.61,16.18,31.29-3.66,69.2-38.61,73.72-1.71,4.69-3.32,9.44-4.82,14.23l18.08-2.54c33.51-4.7,51.84-41.59,35.35-71.14Z"/><path class="c" d="m400.83,27.98l12.41-13.38c-.62-.2-1.25-.39-1.88-.58-24.72,25.07-66.86,17.97-82.03-13.79-3.84-.14-7.69-.23-11.56-.23-1.16,0-2.31.03-3.47.04l7.95,16.3c14.83,30.41,55.58,36.45,78.58,11.64Z"/><path class="c" d="m97.15,497.58c31.21-6.83,59.53,19.82,54.63,51.38l-4.3,27.69c-.49,3.13-.66,6.16-.56,9.09,9.71,6.2,19.78,11.87,30.16,17.01-10.26-8.62-16.65-22.04-14.48-38.19l3.51-26.13c4-29.79-23.16-54.3-52.38-47.28l-25.63,6.16c-15.79,3.8-29.76-1.14-39.38-10.42,3.83,6.07,7.85,12.01,12.07,17.79,2.92-.09,5.92-.44,8.99-1.12l27.37-5.99Z"/><path class="c" d="m130.99,93.93l23.76,11.41c27.09,13.01,58.8-5.24,61.15-35.2l2.06-26.28c1.27-16.24,10.34-28.02,22.19-34.29-7,1.76-13.91,3.75-20.72,5.97-.83,2.82-1.43,5.81-1.74,8.96l-2.76,27.88c-3.15,31.79-37.25,50.5-65.75,36.08l-25-12.65c-2.81-1.42-5.63-2.52-8.44-3.33-8.83,7.28-17.25,15.05-25.24,23.23,11.33-6.94,25.93-8.77,40.49-1.78Z"/><path class="c" d="m504.54,541.6l-23.76-11.41c-27.09-13.01-58.8,5.24-61.15,35.2l-2.06,26.28c-1.27,16.26-10.36,28.05-22.23,34.32,7.02-1.76,13.94-3.76,20.77-5.98.83-2.82,1.43-5.81,1.74-8.98l2.76-27.88c3.15-31.79,37.25-50.5,65.75-36.08l25,12.65c2.81,1.42,5.64,2.52,8.44,3.33,8.84-7.29,17.27-15.07,25.28-23.26-11.33,6.96-25.96,8.81-40.54,1.81Z"/><path class="c" d="m47.17,426.21l18.2-19.07c20.75-21.74,13.18-57.54-14.59-69.03l-24.36-10.08c-14.93-6.18-23.32-18.3-25.7-31.38-.46,6.98-.72,14.02-.72,21.12,0,.06,0,.11,0,.17,2.41,1.64,5.05,3.12,7.93,4.38l25.66,11.25c29.26,12.82,36.52,51.03,13.99,73.68l-19.75,19.87c-2.24,2.26-4.17,4.63-5.83,7.07,4.24,10.77,9.07,21.24,14.42,31.39-3.22-13-.49-27.59,10.75-39.37Z"/><path class="c" d="m35.09,246.45l25.93-4.73c29.56-5.4,44.49-38.8,28.78-64.42l-13.78-22.47c-8.45-13.78-8.11-28.53-2.34-40.51-4.55,5.45-8.91,11.05-13.09,16.8.98,2.75,2.25,5.49,3.84,8.21l14.15,24.18c16.14,27.57-.45,62.74-31.99,67.84l-27.66,4.46c-3.14.51-6.09,1.29-8.86,2.29-2.85,11.03-5.1,22.29-6.76,33.74,5.06-12.34,15.82-22.48,31.77-25.39Z"/><path class="c" d="m337.3,608.63l-12.52-23.2c-14.27-26.45-50.65-30.32-70.16-7.46l-17.11,20.05c-10.6,12.42-24.9,16.61-38.19,14.69,6.67,2.68,13.46,5.14,20.35,7.37,2.33-1.8,4.58-3.87,6.69-6.24l18.63-20.93c21.23-23.87,59.81-18.96,74.4,9.46l12.79,24.93c1.44,2.8,3.07,5.34,4.86,7.64,11.63-.7,23.1-2.02,34.36-3.93-13.34-.96-26.37-8.07-34.1-22.38Z"/><path class="c" d="m588.36,209.32l-18.2,19.07c-20.75,21.74-13.18,57.54,14.59,69.03l24.36,10.08c14.95,6.19,23.34,18.33,25.71,31.42.46-6.99.72-14.04.72-21.15,0-.06,0-.12,0-.18-2.41-1.64-5.05-3.12-7.93-4.38h0s-25.66-11.25-25.66-11.25c-29.26-12.82-36.52-51.03-13.99-73.68l19.75-19.87c2.24-2.26,4.17-4.62,5.82-7.06-4.24-10.78-9.08-21.25-14.43-31.41,3.23,13,.5,27.61-10.74,39.39Z"/><path class="c" d="m298.23,26.9l12.52,23.2c14.27,26.45,50.65,30.32,70.16,7.46l17.11-20.05c10.6-12.41,24.88-16.6,38.17-14.69-6.67-2.68-13.45-5.13-20.33-7.36-2.33,1.8-4.57,3.86-6.68,6.24l-18.63,20.93c-21.23,23.87-59.81,18.96-74.4-9.46l-12.79-24.93c-1.43-2.79-3.06-5.33-4.85-7.63-11.62.7-23.07,2.01-34.33,3.92,13.33.98,26.33,8.08,34.05,22.38Z"/><path class="c" d="m472.93,70.97l-3.51,26.13c-4,29.79,23.16,54.3,52.38,47.28l25.63-6.16c15.8-3.8,29.77,1.15,39.39,10.43-3.83-6.08-7.86-12.01-12.08-17.8-2.92.09-5.91.44-8.99,1.12l-27.37,5.99c-31.21,6.83-59.53-19.82-54.63-51.38l4.3-27.69c.49-3.12.66-6.15.56-9.08-9.7-6.2-19.78-11.87-30.16-17.01,10.25,8.62,16.64,22.04,14.47,38.18Z"/><path class="c" d="m600.44,389.08h0s-25.93,4.73-25.93,4.73c-29.56,5.4-44.49,38.8-28.78,64.42l13.78,22.47c8.47,13.81,8.11,28.57,2.32,40.56,4.56-5.46,8.93-11.08,13.12-16.85-.98-2.75-2.25-5.5-3.84-8.21l-14.15-24.18c-16.14-27.57.45-62.74,31.99-67.84l27.66-4.46c3.14-.51,6.09-1.29,8.86-2.29,2.85-11.04,5.1-22.31,6.76-33.78-5.05,12.36-15.82,22.52-31.79,25.43Z"/><path class="c" d="m106.05,490.41l23.89-6.27c27.24-7.14,53.16,15.3,49.98,43.28l-2.79,24.54c-4.51,39.7,45.51,60.83,70.82,29.91l15.65-19.11c17.84-21.79,52-18.87,65.88,5.64l12.17,21.49c19.69,34.77,72.57,22.46,74.88-17.43l1.43-24.66c1.62-28.11,30.98-45.83,56.61-34.16l22.48,10.24c36.37,16.56,71.91-24.49,50.33-58.12l-13.34-20.79c-15.21-23.7-1.87-55.28,25.72-60.91l24.2-4.93c39.15-7.98,43.79-62.08,6.56-76.6h0s-23.01-8.97-23.01-8.97c-26.24-10.23-34.01-43.62-14.99-64.39l16.68-18.22c26.99-29.47-1.06-75.96-39.72-65.82l-23.89,6.27c-27.24,7.14-53.16-15.3-49.98-43.28l2.79-24.54c4.51-39.7-45.51-60.83-70.82-29.91l-15.65,19.11c-17.84,21.79-52,18.87-65.88-5.64l-12.17-21.49c-19.69-34.77-72.57-22.46-74.88,17.43l-1.43,24.66c-1.62,28.11-30.98,45.83-56.61,34.16l-22.48-10.24c-36.37-16.56-71.91,24.49-50.33,58.11l13.34,20.79c15.21,23.7,1.87,55.28-25.72,60.91l-24.2,4.93c-39.15,7.98-43.79,62.08-6.56,76.6l23.01,8.98c26.24,10.23,34.01,43.62,14.99,64.39l-16.68,18.22c-26.99,29.47,1.06,75.96,39.72,65.82Zm-20.73-68.2l15.21-17.31c17.34-19.74,9.45-50.73-15.22-59.77l-21.64-7.93c-35-12.83-31.72-63.37,4.65-71.56l22.48-5.07c25.63-5.77,37.46-35.49,22.82-57.3l-12.84-19.13c-20.77-30.95,11.59-69.91,45.83-55.16l21.16,9.12c24.13,10.39,51.17-6.69,52.14-32.94l.86-23.03c1.39-37.25,50.47-49.75,69.5-17.69l11.76,19.81c13.41,22.59,45.33,24.66,61.55,4l14.23-18.13c23.02-29.32,70.07-10.58,66.63,26.54l-2.13,22.94c-2.43,26.16,22.17,46.59,47.44,39.41l22.16-6.3c35.86-10.19,62.91,32.63,38.3,60.63l-15.21,17.31c-17.34,19.74-9.45,50.73,15.22,59.77l21.64,7.93c35,12.83,31.72,63.37-4.65,71.56h0s-22.48,5.07-22.48,5.07c-25.63,5.77-37.46,35.49-22.82,57.3l12.84,19.13c20.77,30.95-11.59,69.91-45.83,55.16l-21.16-9.12c-24.13-10.39-51.17,6.69-52.14,32.94l-.86,23.03c-1.39,37.25-50.47,49.75-69.5,17.69l-11.76-19.81c-13.41-22.59-45.33-24.66-61.55-4l-14.23,18.13c-23.02,29.32-70.07,10.58-66.63-26.54l2.13-22.94c2.43-26.16-22.17-46.59-47.44-39.41l-22.16,6.3c-35.86,10.19-62.91-32.63-38.3-60.63Z"/><path class="c" d="m140.79,474.63l20.44-6.27c23.31-7.15,46.52,11.35,44.77,35.66l-1.54,21.33c-2.49,34.5,41.52,50.99,62.32,23.35l12.86-17.09c14.66-19.48,44.31-18.17,57.18,2.54l11.29,18.16c18.27,29.38,63.57,16.85,64.14-17.74l.36-21.38c.41-24.38,25.17-40.74,47.75-31.56l19.81,8.05c32.04,13.03,61.33-23.73,41.47-52.05l-12.28-17.51c-14-19.96-3.59-47.75,20.08-53.6l20.76-5.13c33.58-8.3,35.67-55.25,2.95-66.49h0s-20.22-6.95-20.22-6.95c-23.06-7.92-30.97-36.52-15.26-55.16l13.78-16.35c22.29-26.45-3.62-65.66-36.69-55.52l-20.44,6.27c-23.31,7.15-46.52-11.35-44.77-35.66l1.54-21.33c2.49-34.5-41.52-50.99-62.32-23.35l-12.86,17.09c-14.66,19.48-44.31,18.17-57.18-2.54l-11.29-18.16c-18.27-29.38-63.57-16.85-64.14,17.74l-.36,21.38c-.41,24.38-25.17,40.74-47.75,31.56l-19.81-8.05c-32.04-13.03-61.33,23.73-41.47,52.05l12.28,17.51c14,19.96,3.59,47.75-20.08,53.6l-20.76,5.13c-33.58,8.3-35.67,55.25-2.95,66.49l20.22,6.95c23.06,7.92,30.97,36.52,15.26,55.16l-13.78,16.35c-22.29,26.45,3.62,65.66,36.69,55.52Zm-18.15-59.37l12.4-15.34c14.14-17.49,6.3-43.72-15.12-50.59l-18.78-6.02c-30.38-9.74-29.35-53.08,1.46-61.37l19.05-5.12c21.72-5.84,30.79-31.67,17.5-49.81l-11.66-15.91c-18.85-25.74,7.46-60.2,37.25-48.79l18.42,7.05c21,8.04,43.53-7.52,43.44-30.01l-.08-19.72c-.12-31.91,41.42-44.32,58.82-17.58l10.76,16.53c12.26,18.85,39.63,19.5,52.78,1.26l11.53-16c18.66-25.89,59.56-11.51,57.92,20.35l-1.01,19.7c-1.16,22.46,20.6,39.07,41.96,32.04l18.74-6.17c30.31-9.98,54.95,25.69,34.89,50.51l-12.4,15.34c-14.14,17.49-6.3,43.72,15.12,50.59l18.78,6.02c30.38,9.74,29.35,53.08-1.46,61.37h0s-19.05,5.12-19.05,5.12c-21.72,5.84-30.79,31.67-17.5,49.81l11.66,15.91c18.85,25.74-7.46,60.2-37.25,48.79l-18.42-7.05c-21-8.04-43.53,7.52-43.44,30.01l.08,19.72c.12,31.91-41.42,44.32-58.82,17.58l-10.76-16.53c-12.26-18.85-39.63-19.5-52.78-1.26l-11.53,16c-18.66,25.89-59.56,11.51-57.92-20.35l1.01-19.7c1.16-22.46-20.6-39.07-41.96-32.04l-18.74,6.17c-30.31,9.98-54.95-25.69-34.89-50.51Z"/><path class="c" d="m173.81,456.29l17.04-6c19.43-6.84,39.66,7.96,39.03,28.55l-.56,18.06c-.9,29.21,36.82,41.6,53.42,17.55l10.26-14.87c11.7-16.95,36.77-16.87,48.35.16l10.16,14.94c16.44,24.16,54.24,12.02,53.53-17.2l-.44-18.06c-.5-20.59,19.83-35.26,39.21-28.29l17,6.11c27.5,9.89,50.95-22.16,33.2-45.38l-10.97-14.35c-12.51-16.36-4.68-40.18,15.09-45.94l17.35-5.05c28.06-8.17,28.19-47.87.18-56.22h0s-17.31-5.16-17.31-5.16c-19.74-5.88-27.41-29.76-14.79-46.04l11.07-14.28c17.9-23.1-5.33-55.3-32.9-45.59l-17.04,6c-19.43,6.84-39.66-7.96-39.03-28.55l.56-18.06c.9-29.21-36.82-41.6-53.42-17.55l-10.26,14.87c-11.7,16.95-36.77,16.87-48.35-.16l-10.16-14.94c-16.44-24.16-54.24-12.02-53.53,17.2l.44,18.06c.5,20.59-19.83,35.26-39.21,28.29l-17-6.11c-27.5-9.89-50.95,22.16-33.2,45.38l10.97,14.35c12.51,16.36,4.68,40.18-15.09,45.94l-17.35,5.05c-28.06,8.17-28.19,47.87-.18,56.22l17.31,5.16c19.74,5.88,27.41,29.76,14.79,46.04l-11.07,14.28c-17.9,23.1,5.33,55.3,32.9,45.59Zm-14.9-50.83l9.78-13.17c11.15-15.02,3.74-36.55-14.29-41.52l-15.82-4.36c-25.58-7.06-26.21-43.11-.88-51.05l15.66-4.91c17.85-5.59,24.51-27.37,12.85-41.99l-10.23-12.83c-16.55-20.75,4.14-50.28,29.3-41.82l15.55,5.23c17.73,5.96,35.92-7.74,35.08-26.42l-.74-16.39c-1.19-26.51,32.91-38.25,48.28-16.61l9.5,13.37c10.84,15.25,33.6,14.85,43.91-.76l9.04-13.69c14.62-22.15,49.1-11.6,48.83,14.94l-.17,16.41c-.19,18.7,18.46,31.77,35.97,25.19l15.36-5.77c24.85-9.33,46.54,19.48,30.72,40.78l-9.78,13.17c-11.15,15.02-3.74,36.55,14.29,41.52l15.82,4.36c25.58,7.06,26.21,43.11.88,51.05h0s-15.66,4.91-15.66,4.91c-17.85,5.59-24.51,27.37-12.85,41.99l10.23,12.83c16.55,20.75-4.14,50.28-29.3,41.82l-15.55-5.23c-17.73-5.96-35.92,7.74-35.08,26.42l.74,16.39c1.19,26.51-32.91,38.25-48.28,16.61l-9.5-13.37c-10.84-15.25-33.6-14.85-43.91.76l-9.04,13.69c-14.62,22.15-49.1,11.6-48.83-14.94l.17-16.41c.19-18.7-18.46-31.77-35.97-25.19l-15.36,5.77c-24.85,9.33-46.54-19.48-30.72-40.78Z"/><path class="c" d="m204.99,435.58l13.7-5.46c15.62-6.23,32.62,5.17,32.79,21.98l.15,14.75c.24,23.86,31.43,32.7,44.16,12.52l7.87-12.47c8.97-14.22,29.42-14.99,39.44-1.49l8.79,11.84c14.22,19.16,44.64,7.98,43.08-15.82l-.96-14.72c-1.1-16.78,14.99-29.42,31.03-24.39l14.07,4.41c22.76,7.14,40.81-19.78,25.56-38.12l-9.43-11.34c-10.75-12.93-5.17-32.62,10.77-37.98l13.98-4.7c22.61-7.6,21.39-39.99-1.73-45.86h0s-14.29-3.63-14.29-3.63c-16.3-4.14-23.35-23.35-13.61-37.05l8.55-12.02c13.83-19.44-6.2-44.93-28.36-36.09l-13.7,5.46c-15.62,6.23-32.62-5.17-32.79-21.98l-.15-14.75c-.24-23.86-31.43-32.7-44.16-12.52l-7.87,12.47c-8.97,14.22-29.42,14.99-39.44,1.49l-8.79-11.84c-14.22-19.16-44.64-7.98-43.08,15.82l.96,14.72c1.1,16.78-14.99,29.42-31.03,24.39l-14.07-4.41c-22.76-7.14-40.81,19.78-25.56,38.12l9.43,11.34c10.75,12.93,5.17,32.62-10.77,37.98l-13.98,4.7c-22.61,7.6-21.39,39.99,1.73,45.86l14.29,3.63c16.3,4.14,23.35,23.35,13.61,37.05l-8.55,12.02c-13.83,19.44,6.2,44.93,28.36,36.09Zm-10.95-42.73l7.36-10.82c8.4-12.33,1.79-29.25-12.75-32.63l-12.75-2.96c-20.62-4.79-22.3-33.51-2.37-40.66l12.32-4.42c14.04-5.04,18.64-22.62,8.86-33.89l-8.57-9.89c-13.87-16,1.65-40.22,21.98-34.29l12.57,3.66c14.33,4.17,28.37-7.34,27.09-22.21l-1.12-13.04c-1.82-21.09,24.98-31.56,37.94-14.82l8.01,10.35c9.14,11.8,27.27,10.74,34.97-2.04l6.76-11.21c10.93-18.13,38.76-10.86,39.41,10.31l.4,13.08c.46,14.91,15.75,24.72,29.49,18.9l12.05-5.1c19.5-8.25,37.74,14,25.82,31.5l-7.36,10.82c-8.4,12.33-1.79,29.25,12.75,32.63l12.75,2.96c20.62,4.79,22.3,33.51,2.37,40.66h0s-12.32,4.42-12.32,4.42c-14.04,5.04-18.64,22.62-8.86,33.89l8.57,9.89c13.87,16-1.65,40.22-21.98,34.29l-12.57-3.66c-14.33-4.17-28.37,7.34-27.09,22.21l1.12,13.04c1.82,21.09-24.98,31.56-37.94,14.82l-8.01-10.35c-9.14-11.8-27.27-10.74-34.97,2.04l-6.76,11.21c-10.93,18.13-38.76,10.86-39.41-10.31l-.4-13.08c-.46-14.91-15.75-24.72-29.49-18.9l-12.05,5.1c-19.5,8.25-37.74-14-25.82-31.5Z"/><path class="c" d="m211.08,385.56c-10.09,15.49,6.23,34.59,23.11,27.04l10.43-4.67c11.89-5.32,25.42,2.96,26.09,15.98l.58,11.41c.95,18.46,25.38,24.32,34.59,8.29l5.7-9.91c6.49-11.3,22.31-12.55,30.5-2.41l7.18,8.89c11.62,14.38,34.82,4.76,32.86-13.62l-1.22-11.36c-1.39-12.96,10.67-23.26,23.26-19.88l11.04,2.97c17.85,4.81,30.97-16.62,18.58-30.34l-7.66-8.48c-8.74-9.67-5.04-25.09,7.13-29.75l10.67-4.08c17.27-6.61,15.29-31.65-2.8-35.46h0s-11.18-2.36-11.18-2.36c-12.75-2.69-18.83-17.34-11.72-28.26l6.24-9.58c10.09-15.49-6.23-34.59-23.11-27.04l-10.43,4.67c-11.89,5.32-25.42-2.96-26.09-15.98l-.58-11.41c-.95-18.46-25.38-24.32-34.59-8.29l-5.7,9.91c-6.49,11.3-22.31,12.55-30.5,2.41l-7.18-8.89c-11.62-14.38-34.82-4.76-32.86,13.62l1.22,11.36c1.39,12.96-10.67,23.26-23.26,19.88l-11.04-2.97c-17.85-4.81-30.97,16.62-18.58,30.34l7.66,8.48c8.74,9.67,5.04,25.09-7.13,29.75l-10.67,4.08c-17.27,6.61-15.29,31.65,2.8,35.46l11.18,2.36c12.75,2.69,18.83,17.34,11.72,28.26l-6.24,9.58Zm1.78-42.06c-15.53-2.94-17.66-24.31-3.02-30.26l9.05-3.68c10.32-4.19,13.21-17.44,5.57-25.55l-6.7-7.11c-10.84-11.51,0-30.05,15.34-26.25l9.48,2.35c10.81,2.67,20.94-6.35,19.53-17.39l-1.24-9.69c-2-15.68,17.66-24.31,27.84-12.22l6.29,7.47c7.18,8.52,20.67,7.17,26.02-2.6l4.69-8.57c7.59-13.86,28.58-9.28,29.71,6.48l.7,9.74c.8,11.11,12.51,17.95,22.58,13.2l8.83-4.17c14.29-6.75,28.58,9.29,20.23,22.7l-5.16,8.3c-5.88,9.46-.43,21.87,10.51,23.95l9.6,1.82c15.53,2.94,17.66,24.31,3.02,30.26l-9.05,3.68c-10.32,4.19-13.21,17.44-5.57,25.55l6.7,7.11c10.84,11.51,0,30.05-15.34,26.25l-9.48-2.35c-10.81-2.67-20.94,6.35-19.53,17.39l1.24,9.69c2,15.68-17.66,24.31-27.84,12.22l-6.29-7.47c-7.18-8.52-20.67-7.17-26.02,2.6l-4.69,8.57c-7.59,13.86-28.58,9.28-29.71-6.48l-.7-9.74c-.8-11.11-12.51-17.95-22.58-13.2l-8.83,4.17c-14.29,6.75-28.58-9.29-20.23-22.7l5.16-8.3c5.88-9.46.43-21.87-10.51-23.95l-9.6-1.82Z"/><path class="c" d="m231.12,340.92l8,1.34c9.12,1.53,13.85,11.75,9.13,19.7l-4.14,6.97c-6.7,11.28,5.43,24.35,17.17,18.5l7.26-3.61c8.28-4.12,18.11,1.36,18.96,10.57l.75,8.08c1.21,13.07,18.7,16.51,24.77,4.87l3.75-7.19c4.28-8.2,15.45-9.55,21.55-2.6l5.35,6.09c8.66,9.86,24.83,2.36,22.9-10.62l-1.19-8.02c-1.36-9.15,6.89-16.81,15.91-14.77l7.91,1.79c12.8,2.89,21.48-12.69,12.29-22.05l-5.68-5.79c-6.48-6.6-4.3-17.65,4.19-21.3l7.45-3.21c12.05-5.19,9.92-22.89-3.02-25.06h0l-8-1.34c-9.12-1.53-13.85-11.75-9.13-19.7l4.14-6.97c6.7-11.28-5.43-24.35-17.17-18.5l-7.26,3.61c-8.28,4.12-18.11-1.36-18.96-10.57l-.75-8.08c-1.21-13.07-18.7-16.51-24.77-4.87l-3.75,7.19c-4.28,8.2-15.45,9.55-21.55,2.6l-5.35-6.09c-8.66-9.86-24.83-2.36-22.9,10.62l1.19,8.02c1.36,9.15-6.89,16.81-15.91,14.77l-7.91-1.79c-12.8-2.89-21.48,12.69-12.29,22.05l5.68,5.79c6.48,6.6,4.3,17.65-4.19,21.3l-7.45,3.21c-12.05,5.19-9.92,22.89,3.02,25.06Zm15.3-23.19l5.87-2.67c6.7-3.05,8.24-11.87,2.98-17.01l-4.61-4.51c-7.46-7.3-.81-19.83,9.41-17.74l6.32,1.29c7.21,1.47,13.64-4.75,12.41-12.01l-1.08-6.36c-1.75-10.29,10.99-16.52,18.04-8.82l4.36,4.76c4.97,5.43,13.83,4.17,17.1-2.42l2.87-5.78c4.64-9.35,18.6-6.9,19.78,3.47l.73,6.41c.83,7.31,8.74,11.51,15.25,8.09l5.72-2.99c9.25-4.84,19.11,5.35,13.96,14.43l-3.18,5.61c-3.63,6.4.31,14.44,7.58,15.52l6.38.94c10.33,1.52,12.31,15.56,2.81,19.88h0s-5.87,2.67-5.87,2.67c-6.7,3.05-8.24,11.87-2.98,17.01l4.61,4.51c7.46,7.3.81,19.83-9.41,17.74l-6.32-1.29c-7.21-1.47-13.64,4.75-12.41,12.01l1.08,6.36c1.75,10.29-10.99,16.52-18.04,8.82l-4.36-4.76c-4.97-5.43-13.83-4.17-17.1,2.42l-2.87,5.78c-4.64,9.35-18.6,6.9-19.78-3.47l-.73-6.41c-.83-7.31-8.74-11.51-15.25-8.09l-5.72,2.99c-9.25,4.84-19.11-5.35-13.96-14.43l3.18-5.61c3.63-6.4-.31-14.44-7.58-15.52l-6.38-.94c-10.33-1.52-12.31-15.56-2.81-19.88Z"/><path class="c" d="m267.16,333.54l4.76.6c5.42.68,8.46,6.6,5.87,11.41l-2.28,4.22c-3.68,6.82,3.8,14.24,10.59,10.51l4.2-2.31c4.79-2.63,10.73.36,11.45,5.78l.64,4.75c1.03,7.68,11.44,9.29,14.74,2.28l2.04-4.34c2.33-4.94,8.89-6.01,12.66-2.06l3.31,3.47c5.35,5.61,14.72.79,13.26-6.82l-.9-4.71c-1.02-5.37,3.66-10.09,9.04-9.11l4.71.86c7.63,1.39,12.37-8.01,6.72-13.32l-3.49-3.28c-3.98-3.74-2.97-10.31,1.96-12.68l4.32-2.07c6.99-3.35,5.3-13.75-2.39-14.72l-4.76-.6c-5.42-.68-8.46-6.6-5.87-11.41l2.28-4.22c3.68-6.82-3.8-14.24-10.59-10.51l-4.2,2.31c-4.79,2.63-10.73-.36-11.45-5.78l-.64-4.75c-1.03-7.68-11.44-9.29-14.74-2.28l-2.04,4.34c-2.33,4.94-8.89,6.01-12.66,2.06l-3.31-3.47c-5.35-5.61-14.72-.79-13.26,6.82l.9,4.71c1.02,5.37-3.66,10.09-9.04,9.11l-4.71-.86c-7.63-1.39-12.37,8.01-6.72,13.32l3.49,3.28c3.98,3.74,2.97,10.31-1.96,12.68l-4.32,2.07c-6.99,3.35-5.3,13.75,2.39,14.72Zm15.99-14.37l2.8-1.41c3.19-1.61,3.76-5.92,1.11-8.31l-2.33-2.1c-3.77-3.39-.79-9.61,4.21-8.8l3.09.5c3.53.57,6.53-2.58,5.78-6.07l-.65-3.07c-1.05-4.96,5.01-8.24,8.58-4.64l2.21,2.22c2.52,2.53,6.8,1.75,8.25-1.51l1.28-2.86c2.06-4.63,8.89-3.72,9.67,1.29l.48,3.1c.55,3.53,4.47,5.41,7.56,3.62l2.71-1.57c4.39-2.53,9.38,2.22,7.06,6.73l-1.43,2.79c-1.63,3.18.44,7,3.99,7.38l3.12.33c5.04.53,6.29,7.31,1.76,9.59l-2.8,1.41c-3.19,1.61-3.76,5.92-1.11,8.31l2.33,2.1c3.77,3.39.79,9.6-4.21,8.8l-3.09-.5c-3.53-.57-6.53,2.58-5.78,6.07l.65,3.07c1.05,4.96-5.01,8.24-8.58,4.64l-2.21-2.22c-2.52-2.53-6.8-1.75-8.25,1.51l-1.28,2.86c-2.06,4.63-8.89,3.72-9.67-1.29l-.48-3.1c-.55-3.53-4.47-5.41-7.56-3.62l-2.71,1.57c-4.39,2.53-9.38-2.22-7.06-6.73l1.43-2.79c1.63-3.18-.44-7-3.99-7.38l-3.12-.33c-5.04-.53-6.29-7.31-1.76-9.59Z"/></svg>