<?xml version="1.0" encoding="UTF-8"?><svg id="a" xmlns="http://www.w3.org/2000/svg" viewBox="0 0 972 972"><defs><style>.b{fill:#2273f3;stroke-width:0px;}</style></defs><path class="b" d="m249,910c-31-75-40-157-19-237,14-53,40-98,81-135,7-6,14-11,21-17,6-4,12-7,18-11,19-10,37-18,58-22,0,3,0,5,1,8-10,4-19,8-29,12-3,2-6,4-9,5-1,1-3,2-4,3-2,1-3,1-5,2-37,24-63,56-83,94-20,39-30,82-32,125-1,30,2,59,8,89,4,17,8,34,14,50,8,19,15,38,25,56-15-7-30-14-45-22h0Zm-43-27c-14-10-27-21-40-32-12-71-8-145,20-212,25-61,68-114,128-144,14-7,29-13,44-17,17-4,34-5,51-7,0,3,0,6-1,9-58,5-109,37-147,81-76,90-87,214-55,322h0Zm136,67c-73-106-100-251-23-368,11-15,22-28,35-41,17-15,35-28,56-37,1,3,1,5,2,8-38,22-68,57-87,97-13,29-20,59-24,90-2,19-1,37,0,56,4,44,16,85,36,125,3,4,5,8,7,13,1,2,3,4,4,6s2,5,3,7c12,20,25,38,40,56-16-4-33-7-49-12h0Zm-212-134c-12-12-22-26-33-39,1-66,19-129,53-187,14-23,29-42,47-61,24-24,51-43,82-57,42-18,90-25,135-16-2,2-3,5-3,8-52-6-102,9-147,39-105,71-144,196-134,313h0Zm312,154c-29-28-54-59-74-95-15-29-27-57-35-89-25-97,1-206,82-267,1,3,3,5,4,8-26,23-44,53-57,86-1,2,0,4-1,6-13,33-15,68-12,102,3,50,18,96,45,140,22,34,44,64,75,90,2,2,3,4,5,6l18,15c-17,0-33-1-50-2h0Zm-373-236c-9-14-17-29-24-45,7-27,17-53,28-79,1-2,3-4,4-6,32-66,83-121,149-154,4-1,7-3,11-5,59-25,127-29,185-3-2,2-4,4-5,7-108-35-220,22-284,116l-3,6c-9,12-15,23-21,36-2,4-5,8-7,12-16,37-28,75-33,115h0Zm474,234c-4-2-9-5-13-8-4-4-8-6-13-9-46-34-82-73-109-122-26-48-41-100-39-154,2-52,20-103,55-142,1,3,3,5,5,7-48,67-50,158-19,233,35,83,104,147,183,187-17,3-33,7-50,8h0ZM26,642c-6-16-9-33-14-49,27-52,60-99,109-136l5-5c47-35,97-56,154-62,53-5,108,8,152,39-2,2-3,5-5,5-3,1-6-2-9-4-44-22-92-27-141-18-8,1-15,2-23,4-7,2-15,5-22,7-20,7-38,16-56,27-31,20-56,42-80,70-3,4-6,7-9,11-27,35-46,71-61,111h0Zm616,304c-51-19-97-46-138-84-13-13-24-26-36-40-15-19-26-38-36-59-30-66-35-143-2-209,2-3,4-5,5-9,2,2,4,4,7,5-27,58-22,126,3,185,2,4,3,7,5,11,47,94,139,157,239,181-15,8-31,13-47,19h0ZM4,543c-4-16-2-33-4-50,80-104,221-176,353-132,2,1,4,0,6,1,33,13,63,31,86,57-2,1-4,3-6,5-43-39-102-57-160-55-48,2-93,15-136,39-58,33-104,80-139,135h0Zm730,360c-5-1-11-1-16-2l-15-3c-48-12-91-26-132-56l-6-3c-94-64-151-176-116-284,2,2,4,3,7,3-9,45-3,93,16,135,8,18,17,34,29,50,16,20,32,37,51,53l21,15c62,43,131,62,203,64-13,11-27,20-42,28h0ZM2,442c2-17,4-34,8-51,29-24,61-44,95-60,2-1,5-1,7-2,82-37,179-42,261,2,36,19,67,46,87,81-2,1-6,3-6,2-36-42-81-71-135-83-121-27-237,28-317,111h0Zm814,401c-40,2-79,0-120-9-51-12-96-32-137-65-63-51-104-128-95-208,2,1,6,1,6,2,4,21,4,41,11,61,5,15,11,30,19,44,14,26,33,46,54,66,6,5,12,10,19,15,48,36,101,54,158,61,35,4,69,4,105-1,5-1,10-3,15-3-11,13-23,25-35,37h0ZM22,342c6-16,11-32,18-48,97-51,218-67,320-15,54,28,96,73,116,130-3,0-5,0-8,1-17-36-43-67-79-90-2-1-2-3-4-4-92-58-202-52-296-11-9,4-18,9-27,13-14,7-27,16-40,24h0Zm860,424c-98,29-206,23-297-37-59-39-97-98-106-165h9c4,21,12,39,22,58,14,26,33,47,56,66,3,2,6,4,9,7,20,14,40,26,63,34,2,1,3,2,5,3,87,32,183,25,267-10-9,15-17,31-28,44h0Zm-399-358h1c-15-69-65-124-127-156-4-2-7-3-11-5-2-1-4-1-6-2s-3-2-5-3c-88-34-187-29-273,7,9-15,18-29,27-43,86-24,179-23,261,16,73,35,134,104,142,186h-9Zm13,155c3,0,5,0,8-1,23,49,64,87,113,110,20,9,40,15,62,20,28,6,54,6,82,5,68-5,133-29,189-68-5,17-11,32-18,48-78,43-168,60-258,39-82-19-152-74-178-153h0Zm5-154c-2-17-3-34-7-51-8-27-18-49-34-73-3-3-5-5-7-9-1-2-3-3-4-4-1-2-2-3-3-5-80-95-209-121-325-101,11-13,22-25,35-36,33-3,65-2,98,4l15,3c82,17,152,56,200,127,30,45,45,95,39,147-2-1-5-1-7-2h0Zm11,151c2-2,5-3,8-3,33,45,82,73,138,85,120,24,232-30,312-112-3,17-4,34-8,50-51,44-112,74-180,87-48,8-95,6-141-8-27-9-51-21-74-38-17-13-31-27-44-44-4-6-7-12-11-17h0Zm4-146c10-49,2-100-21-145-14-27-30-50-52-72-16-15-31-27-50-40-4-2-7-4-11-7-58-34-121-51-187-53,5-4,10-7,15-11,10-6,18-12,28-17,58,8,112,27,163,61l6,3c13,9,24,19,36,29,3,3,5,6,9,9,2,1,3,3,4,5,2,1,3,2,5,4,58,64,89,154,62,237-2-2-4-3-7-3h0Zm11,139c2-1,4-3,6-5,49,44,117,61,183,53,101-13,186-73,243-160,3-4,7-8,9-13,3,17,2,34,4,51-44,54-99,100-165,125-62,23-131,29-193,5-2-1-4,0-6-1-13-5-25-12-38-19-12-7-23-15-33-25-3-4-7-7-10-11h0Zm3-131c9-21,15-43,17-65,1-31,0-63-11-92-1-2,0-4-1-6-28-84-94-149-174-185-2-1-4-3-6-4-17-7-32-14-50-18-2-1-5-2-7-3-5-1-10-3-15-4,15-7,31-13,47-19,44,16,84,39,122,70,28,24,50,49,70,80,48,77,59,173,15,251-2-2-4-4-7-5h0Zm10,121c2-2,4-4,5-6,41,22,87,31,134,26,128-15,225-118,267-234,4,16,10,32,13,49-6,14-13,27-22,41-6,9-11,16-17,25-17,21-33,40-53,58s-41,32-65,46c-8,4-15,7-23,11-76,34-170,33-239-16h0Zm3-111c57-80,49-189-1-273-3-4-5-7-7-11-40-61-93-106-157-135,17-3,33-8,50-9,35,20,64,47,92,77,3,4,5,8,9,11,2,2,3,4,4,6l5,5c48,65,72,138,63,216-6,45-23,87-53,120-1-3-3-5-5-7h0Zm7,98c2-2,4-4,5-7,83,27,173-3,237-62,63-60,100-140,111-224l24,45c-13,53-35,102-69,146-5,5-8,11-13,16-37,41-80,74-132,91-53,17-112,18-163-5h0Zm3-85c20-19,37-41,48-67,1-1,2-3,3-4l6-15c1-2,0-4,1-6C655,221,583,80,479,0c17,0,34,2,51,2,17,19,34,36,50,58,55,76,81,162,62,254-12,56-40,105-85,138-2-2-3-5-4-7h0Zm5,71c2-2,3-5,3-8,52,6,102-10,147-39,2-1,2-3,4-4,102-71,140-194,130-309l33,39c-3,66-19,129-53,187-3,4-5,7-7,11-33,49-74,87-127,109-41,17-86,23-130,14h0Zm2-56c23-13,41-30,58-51,36-46,53-99,54-155,0-23-1-46-6-70-8-36-19-67-35-99-3-4-5-8-7-13-14-22-27-43-44-62,17,3,33,8,50,12,18,28,33,57,45,88,17,47,25,96,22,146-6,87-54,174-135,212-1-3-1-5-2-8h0Zm3,40c0-3,0-5,1-8,44-4,85-24,119-54,93-80,118-209,88-326-1-3,0-5-1-8-1-5-3-10-4-15,8,7,16,13,25,19,6,4,10,9,15,12,9,54,9,108-4,162-3,9-4,18-7,26-4,8-6,17-9,25-6,14-12,27-20,40-9,14-18,27-28,40-44,52-107,88-175,87h0Zm0-24c79-26,133-97,153-178,2-9,3-17,4-25,2-9,3-17,4-25,1-9,0-18,0-27,1-11,0-23-1-34-6-52-20-102-46-147,16,6,31,14,46,22,9,24,17,47,22,73,1,10,4,19,5,29,3,28,4,56,1,84-2,13-3,26-6,39-4,17-9,32-15,48-2,4-4,7-5,11-1,2-2,3-3,5s-1,4-2,6c-8,14-15,27-25,40-3,3-5,6-7,9-33,39-75,67-124,78,0-3,0-5-1-8h0Z"/></svg>